{"title":"The Blacklist S01E13 HDTV x264 AAC E Subs [GWC].mp4","uid":9534734,"size":126749182,"categoryP":"video","categoryS":"tv_shows","magnet":"?xt=urn:btih:3d2b748996bffc1e9584f6ae08698e130ec20fcb&amp;dn=The+Blacklist+S01E13+HDTV+x264+AAC+E+Subs+%5BGWC%5D.mp4&amp;tr=udp%3A%2F%2Ftracker.openbittorrent.com%3A80&amp;tr=udp%3A%2F%2Fopen.demonii.com%3A1337&amp;tr=udp%3A%2F%2Ftracker.coppersurfer.tk%3A6969&amp;tr=udp%3A%2F%2Fexodus.desync.com%3A6969","seeders":2,"leechers":0,"uploader":"canc232","files":1,"time":1390909599,"description":"\nThe Blacklist S01E13 HDTV x264 AAC E Subs [GWC] \n\n\nSCREENS : &lt;a href=&quot;\nhttp://imageshack.com/a/img571/4048/oqp5.jpg&quot; rel=&quot;nofollow&quot; target=&quot;_NEW&quot;&gt;\nhttp://imageshack.com/a/img571/4048/oqp5.jpg&lt;/a&gt; &lt;a href=&quot;\nhttp://imageshack.com/a/img196/9043/ydqh.jpg&quot; rel=&quot;nofollow&quot; target=&quot;_NEW&quot;&gt;\nhttp://imageshack.com/a/img196/9043/ydqh.jpg&lt;/a&gt; &lt;a href=&quot;\nhttp://imageshack.com/a/img811/7252/6p5d.jpg&quot; rel=&quot;nofollow&quot; target=&quot;_NEW&quot;&gt;\nhttp://imageshack.com/a/img811/7252/6p5d.jpg&lt;/a&gt;\n\n\nMEDIA INFO :\nGeneral \nFormat : MPEG-4 \nFormat profile : Base Media \nFile size : 121 MiB \nDuration : 42mn 41s \nOverall bit rate mode : Variable \nOverall bit rate : 396 Kbps \n\nVideo \nFormat : AVC \nFormat profile : &lt;a class=&quot;__cf_email__&quot; href=&quot;/cdn-cgi/l/email-protection&quot; data-cfemail=&quot;6a22030d022a2659445a&quot;&gt;[email&amp;#160;protected]&lt;/a&gt;&lt;script cf-hash='f9e31' type=&quot;text/javascript&quot;&gt;\n/* &lt;![CDATA[ */!function(){try{var t=&quot;currentScript&quot;in document?document.currentScript:function(){for(var t=document.getElementsByTagName(&quot;script&quot;),e=t.length;e--;)if(t[e].getAttribute(&quot;cf-hash&quot;))return t[e]}();if(t&amp;&amp;t.previousSibling){var e,r,n,i,c=t.previousSibling,a=c.getAttribute(&quot;data-cfemail&quot;);if(a){for(e=&quot;&quot;,r=parseInt(a.substr(0,2),16),n=2;a.length-n;n+=2)i=parseInt(a.substr(n,2),16)^r,e+=String.fromCharCode(i);e=document.createTextNode(e),c.parentNode.replaceChild(e,c)}}}catch(u){}}();/* ]]&gt; */&lt;/script&gt; \nFormat settings, CABAC : Yes \nFormat settings, ReFrames : 4 frames \nDuration : 42mn 41s \nBit rate : 333 Kbps \nMaximum bit rate : 2 826 Kbps \nWidth : 720 pixels \nHeight : 404 pixels \nDisplay aspect ratio : 16:9 \nFrame rate : 23.976 fps \nStream size : 102 MiB (84%) \nTitle : The Blacklist S01E13 HDTV x264 AAC E Subs [GWC] \nWriting library : x264 core\n\nAudio \nFormat : AAC \nFormat profile : HE-AAC / LC \nDuration : 42mn 41s \nBit rate mode : Variable \nChannel(s) : 2 channels \nChannel positions : Front: L R \nSampling rate : 48.0 KHz / 24.0 KHz \nStream size : 18.3 MiB (15%) \nLanguage : English \n\nText \nFormat : Timed Text \nDuration : 42mn 16s \nBit rate mode : Variable \nStream size : 27.7 KiB (0%) \nTitle : English Subtitle by n17t01 \nLanguage : English ","torrent":{"xt":"urn:btih:3d2b748996bffc1e9584f6ae08698e130ec20fcb","amp;dn":"The+Blacklist+S01E13+HDTV+x264+AAC+E+Subs+%5BGWC%5D.mp4","amp;tr":["udp%3A%2F%2Ftracker.openbittorrent.com%3A80","udp%3A%2F%2Fopen.demonii.com%3A1337","udp%3A%2F%2Ftracker.coppersurfer.tk%3A6969","udp%3A%2F%2Fexodus.desync.com%3A6969"],"infoHash":"3d2b748996bffc1e9584f6ae08698e130ec20fcb","infoHashBuffer":{"type":"Buffer","data":[61,43,116,137,150,191,252,30,149,132,246,174,8,105,142,19,14,194,15,203]},"announce":[],"urlList":[]}}